<?xml version="1.0" encoding="UTF-8" standalone="no"?>
<svg xmlns="http://www.w3.org/2000/svg" xmlns:xlink="http://www.w3.org/1999/xlink" contentScriptType="application/ecmascript" contentStyleType="text/css" height="656px" preserveAspectRatio="none" style="width:539px;height:656px;" version="1.1" viewBox="0 0 539 656" width="539px" zoomAndPan="magnify"><defs><filter height="300%" id="fg6cwz6il96uq" width="300%" x="-1" y="-1"><feGaussianBlur result="blurOut" stdDeviation="2.0"/><feColorMatrix in="blurOut" result="blurOut2" type="matrix" values="0 0 0 0 0 0 0 0 0 0 0 0 0 0 0 0 0 0 .4 0"/><feOffset dx="4.0" dy="4.0" in="blurOut2" result="blurOut3"/><feBlend in="SourceGraphic" in2="blurOut3" mode="normal"/></filter></defs><g><!--class Guest--><rect fill="#FEFECE" filter="url(#fg6cwz6il96uq)" height="60.8047" id="Guest" style="stroke: #A80036; stroke-width: 1.5;" width="82" x="104.5" y="450"/><ellipse cx="125.35" cy="466" fill="#ADD1B2" rx="11" ry="11" style="stroke: #A80036; stroke-width: 1.0;"/><path d="M128.3188,471.6406 Q127.7406,471.9375 127.1,472.0859 Q126.4594,472.2344 125.7563,472.2344 Q123.2563,472.2344 121.9359,470.5859 Q120.6156,468.9375 120.6156,465.8125 Q120.6156,462.6875 121.9359,461.0313 Q123.2563,459.375 125.7563,459.375 Q126.4594,459.375 127.1078,459.5313 Q127.7563,459.6875 128.3188,459.9844 L128.3188,462.7031 Q127.6938,462.125 127.1,461.8516 Q126.5063,461.5781 125.8813,461.5781 Q124.5375,461.5781 123.85,462.6484 Q123.1625,463.7188 123.1625,465.8125 Q123.1625,467.9063 123.85,468.9766 Q124.5375,470.0469 125.8813,470.0469 Q126.5063,470.0469 127.1,469.7734 Q127.6938,469.5 128.3188,468.9219 L128.3188,471.6406 Z "/><text fill="#000000" font-family="sans-serif" font-size="12" lengthAdjust="spacingAndGlyphs" textLength="37" x="140.65" y="470.1543">Guest</text><line style="stroke: #A80036; stroke-width: 1.5;" x1="105.5" x2="185.5" y1="482" y2="482"/><text fill="#000000" font-family="sans-serif" font-size="11" lengthAdjust="spacingAndGlyphs" textLength="70" x="110.5" y="496.2104">String name</text><line style="stroke: #A80036; stroke-width: 1.5;" x1="105.5" x2="185.5" y1="502.8047" y2="502.8047"/><!--class Bedroom--><rect fill="#FEFECE" filter="url(#fg6cwz6il96uq)" height="150.4375" id="Bedroom" style="stroke: #A80036; stroke-width: 1.5;" width="279" x="6" y="223"/><ellipse cx="113.25" cy="239" fill="#ADD1B2" rx="11" ry="11" style="stroke: #A80036; stroke-width: 1.0;"/><path d="M116.2188,244.6406 Q115.6406,244.9375 115,245.0859 Q114.3594,245.2344 113.6563,245.2344 Q111.1563,245.2344 109.8359,243.5859 Q108.5156,241.9375 108.5156,238.8125 Q108.5156,235.6875 109.8359,234.0313 Q111.1563,232.375 113.6563,232.375 Q114.3594,232.375 115.0078,232.5313 Q115.6563,232.6875 116.2188,232.9844 L116.2188,235.7031 Q115.5938,235.125 115,234.8516 Q114.4063,234.5781 113.7813,234.5781 Q112.4375,234.5781 111.75,235.6484 Q111.0625,236.7188 111.0625,238.8125 Q111.0625,240.9063 111.75,241.9766 Q112.4375,243.0469 113.7813,243.0469 Q114.4063,243.0469 115,242.7734 Q115.5938,242.5 116.2188,241.9219 L116.2188,244.6406 Z "/><text fill="#000000" font-family="sans-serif" font-size="12" lengthAdjust="spacingAndGlyphs" textLength="56" x="133.75" y="243.1543">Bedroom</text><line style="stroke: #A80036; stroke-width: 1.5;" x1="7" x2="284" y1="255" y2="255"/><text fill="#000000" font-family="sans-serif" font-size="11" lengthAdjust="spacingAndGlyphs" textLength="88" x="12" y="269.2104">Integer number</text><text fill="#000000" font-family="sans-serif" font-size="11" lengthAdjust="spacingAndGlyphs" textLength="90" x="12" y="282.0151">Integer capacity</text><text fill="#000000" font-family="sans-serif" font-size="11" lengthAdjust="spacingAndGlyphs" textLength="93" x="12" y="294.8198">Float nightlyRate</text><text fill="#000000" font-family="sans-serif" font-size="11" lengthAdjust="spacingAndGlyphs" textLength="145" x="12" y="307.6245">ArrayList&lt;Guest&gt; guests</text><text fill="#000000" font-family="sans-serif" font-size="11" lengthAdjust="spacingAndGlyphs" textLength="62" x="12" y="320.4292">String type</text><line style="stroke: #A80036; stroke-width: 1.5;" x1="7" x2="284" y1="327.0234" y2="327.0234"/><text fill="#000000" font-family="sans-serif" font-size="11" lengthAdjust="spacingAndGlyphs" textLength="127" x="12" y="341.2339">isOccupied() : boolean</text><text fill="#000000" font-family="sans-serif" font-size="11" lengthAdjust="spacingAndGlyphs" textLength="218" x="12" y="354.0386">addGuestsToRoom(ArrayList&lt;Guest&gt;)</text><text fill="#000000" font-family="sans-serif" font-size="11" lengthAdjust="spacingAndGlyphs" textLength="267" x="12" y="366.8433">removeGuestsFromRoom() : ArrayList&lt;Guest&gt;</text><!--class Facility--><rect fill="#FEFECE" filter="url(#fg6cwz6il96uq)" height="73.6094" id="Facility" style="stroke: #A80036; stroke-width: 1.5;" width="102" x="320.5" y="261"/><ellipse cx="348.1" cy="277" fill="#ADD1B2" rx="11" ry="11" style="stroke: #A80036; stroke-width: 1.0;"/><path d="M351.0688,282.6406 Q350.4906,282.9375 349.85,283.0859 Q349.2094,283.2344 348.5063,283.2344 Q346.0063,283.2344 344.6859,281.5859 Q343.3656,279.9375 343.3656,276.8125 Q343.3656,273.6875 344.6859,272.0313 Q346.0063,270.375 348.5063,270.375 Q349.2094,270.375 349.8578,270.5313 Q350.5063,270.6875 351.0688,270.9844 L351.0688,273.7031 Q350.4438,273.125 349.85,272.8516 Q349.2563,272.5781 348.6313,272.5781 Q347.2875,272.5781 346.6,273.6484 Q345.9125,274.7188 345.9125,276.8125 Q345.9125,278.9063 346.6,279.9766 Q347.2875,281.0469 348.6313,281.0469 Q349.2563,281.0469 349.85,280.7734 Q350.4438,280.5 351.0688,279.9219 L351.0688,282.6406 Z "/><text fill="#000000" font-family="sans-serif" font-size="12" lengthAdjust="spacingAndGlyphs" textLength="42" x="364.9" y="281.1543">Facility</text><line style="stroke: #A80036; stroke-width: 1.5;" x1="321.5" x2="421.5" y1="293" y2="293"/><text fill="#000000" font-family="sans-serif" font-size="11" lengthAdjust="spacingAndGlyphs" textLength="70" x="326.5" y="307.2104">String name</text><text fill="#000000" font-family="sans-serif" font-size="11" lengthAdjust="spacingAndGlyphs" textLength="90" x="326.5" y="320.0151">Integer capacity</text><line style="stroke: #A80036; stroke-width: 1.5;" x1="321.5" x2="421.5" y1="326.6094" y2="326.6094"/><!--class Hotel--><rect fill="#FEFECE" filter="url(#fg6cwz6il96uq)" height="137.6328" id="Hotel" style="stroke: #A80036; stroke-width: 1.5;" width="314" x="214.5" y="8"/><ellipse cx="350.75" cy="24" fill="#ADD1B2" rx="11" ry="11" style="stroke: #A80036; stroke-width: 1.0;"/><path d="M353.7188,29.6406 Q353.1406,29.9375 352.5,30.0859 Q351.8594,30.2344 351.1563,30.2344 Q348.6563,30.2344 347.3359,28.5859 Q346.0156,26.9375 346.0156,23.8125 Q346.0156,20.6875 347.3359,19.0313 Q348.6563,17.375 351.1563,17.375 Q351.8594,17.375 352.5078,17.5313 Q353.1563,17.6875 353.7188,17.9844 L353.7188,20.7031 Q353.0938,20.125 352.5,19.8516 Q351.9063,19.5781 351.2813,19.5781 Q349.9375,19.5781 349.25,20.6484 Q348.5625,21.7188 348.5625,23.8125 Q348.5625,25.9063 349.25,26.9766 Q349.9375,28.0469 351.2813,28.0469 Q351.9063,28.0469 352.5,27.7734 Q353.0938,27.5 353.7188,26.9219 L353.7188,29.6406 Z "/><text fill="#000000" font-family="sans-serif" font-size="12" lengthAdjust="spacingAndGlyphs" textLength="33" x="371.25" y="28.1543">Hotel</text><line style="stroke: #A80036; stroke-width: 1.5;" x1="215.5" x2="527.5" y1="40" y2="40"/><text fill="#000000" font-family="sans-serif" font-size="11" lengthAdjust="spacingAndGlyphs" textLength="70" x="220.5" y="54.2104">String name</text><text fill="#000000" font-family="sans-serif" font-size="11" lengthAdjust="spacingAndGlyphs" textLength="154" x="220.5" y="67.0151">Arraylist&lt;Facility&gt; facilities</text><text fill="#000000" font-family="sans-serif" font-size="11" lengthAdjust="spacingAndGlyphs" textLength="184" x="220.5" y="79.8198">ArrayList&lt;BedRoom&gt; bedrooms</text><text fill="#000000" font-family="sans-serif" font-size="11" lengthAdjust="spacingAndGlyphs" textLength="161" x="220.5" y="92.6245">ArrayList&lt;Booking&gt; booking</text><line style="stroke: #A80036; stroke-width: 1.5;" x1="215.5" x2="527.5" y1="99.2188" y2="99.2188"/><text fill="#000000" font-family="sans-serif" font-size="11" lengthAdjust="spacingAndGlyphs" textLength="302" x="220.5" y="113.4292">checkInGuest(bedroom, ArrayList&lt;Guest&gt;) : Booking</text><text fill="#000000" font-family="sans-serif" font-size="11" lengthAdjust="spacingAndGlyphs" textLength="93" x="220.5" y="126.2339">addRoom(Room)</text><text fill="#000000" font-family="sans-serif" font-size="11" lengthAdjust="spacingAndGlyphs" textLength="215" x="220.5" y="139.0386">getVacantRooms() : ArrayList&lt;Room&gt;</text><!--class Booking--><rect fill="#FEFECE" filter="url(#fg6cwz6il96uq)" height="73.6094" id="Booking" style="stroke: #A80036; stroke-width: 1.5;" width="136" x="330.5" y="572"/><ellipse cx="369.8" cy="588" fill="#ADD1B2" rx="11" ry="11" style="stroke: #A80036; stroke-width: 1.0;"/><path d="M372.7688,593.6406 Q372.1906,593.9375 371.55,594.0859 Q370.9094,594.2344 370.2063,594.2344 Q367.7063,594.2344 366.3859,592.5859 Q365.0656,590.9375 365.0656,587.8125 Q365.0656,584.6875 366.3859,583.0313 Q367.7063,581.375 370.2063,581.375 Q370.9094,581.375 371.5578,581.5313 Q372.2063,581.6875 372.7688,581.9844 L372.7688,584.7031 Q372.1438,584.125 371.55,583.8516 Q370.9563,583.5781 370.3313,583.5781 Q368.9875,583.5781 368.3,584.6484 Q367.6125,585.7188 367.6125,587.8125 Q367.6125,589.9063 368.3,590.9766 Q368.9875,592.0469 370.3313,592.0469 Q370.9563,592.0469 371.55,591.7734 Q372.1438,591.5 372.7688,590.9219 L372.7688,593.6406 Z "/><text fill="#000000" font-family="sans-serif" font-size="12" lengthAdjust="spacingAndGlyphs" textLength="50" x="389.2" y="592.1543">Booking</text><line style="stroke: #A80036; stroke-width: 1.5;" x1="331.5" x2="465.5" y1="604" y2="604"/><text fill="#000000" font-family="sans-serif" font-size="11" lengthAdjust="spacingAndGlyphs" textLength="86" x="336.5" y="618.2104">Bedroom room</text><text fill="#000000" font-family="sans-serif" font-size="11" lengthAdjust="spacingAndGlyphs" textLength="124" x="336.5" y="631.0151">Integer numberNights</text><line style="stroke: #A80036; stroke-width: 1.5;" x1="331.5" x2="465.5" y1="637.6094" y2="637.6094"/><!--link Hotel to Bedroom--><path d="M291.661,155.366 C269.026,177.3 244.442,201.122 222.008,222.861 " fill="none" id="Hotel-Bedroom" style="stroke: #A80036; stroke-width: 1.0;"/><polygon fill="#A80036" points="301.231,146.092,294.1386,147.3951,292.6136,154.4431,299.706,153.14,301.231,146.092" style="stroke: #A80036; stroke-width: 1.0;"/><text fill="#000000" font-family="sans-serif" font-size="13" lengthAdjust="spacingAndGlyphs" textLength="54" x="266.5" y="189.0669">contains</text><!--link Hotel to Facility--><path d="M371.5,159.246 C371.5,194.177 371.5,233.225 371.5,260.802 " fill="none" id="Hotel-Facility" style="stroke: #A80036; stroke-width: 1.0;"/><polygon fill="#A80036" points="371.5,146.092,367.5,152.092,371.5,158.092,375.5,152.092,371.5,146.092" style="stroke: #A80036; stroke-width: 1.0;"/><text fill="#000000" font-family="sans-serif" font-size="13" lengthAdjust="spacingAndGlyphs" textLength="54" x="372.5" y="189.0669">contains</text><!--link Bedroom to Guest--><path d="M145.5,386.202 C145.5,409.054 145.5,432.166 145.5,449.67 " fill="none" id="Bedroom-Guest" style="stroke: #A80036; stroke-width: 1.0;"/><polygon fill="#FFFFFF" points="145.5,373.198,141.5,379.198,145.5,385.198,149.5,379.198,145.5,373.198" style="stroke: #A80036; stroke-width: 1.0;"/><text fill="#000000" font-family="sans-serif" font-size="13" lengthAdjust="spacingAndGlyphs" textLength="54" x="146.5" y="416.0669">contains</text><!--link Hotel to Booking--><path d="M421.943,146.204 C427.285,155.842 432.026,165.913 435.5,176 C483.732,316.029 435.971,495.99 411.279,571.7917 " fill="none" id="Hotel-Booking" style="stroke: #A80036; stroke-width: 1.0; stroke-dasharray: 7.0,7.0;"/><!--link Bedroom to Booking--><path d="M206.1,373.013 C257.558,435.861 329.2,523.361 368.951,571.9111 " fill="none" id="Bedroom-Booking" style="stroke: #A80036; stroke-width: 1.0; stroke-dasharray: 7.0,7.0;"/><!--
@startuml
class Guest {
  String name
}

class Bedroom {
  Integer number
  Integer capacity
  Float nightlyRate
  ArrayList<Guest> guests
  String type
  isOccupied() : boolean
  addGuestsToRoom(ArrayList<Guest>)
  removeGuestsFromRoom() : ArrayList<Guest>
}

class Facility {
  String name
  Integer capacity
}

Class Hotel {
  String name
  Arraylist<Facility> facilities
  ArrayList<BedRoom> bedrooms
  ArrayList<Booking> booking
  checkInGuest(bedroom, ArrayList<Guest>) : Booking
  addRoom(Room)
  getVacantRooms() : ArrayList<Room>
}

Class Booking {
  Bedroom room
  Integer numberNights
}

Hotel *- - Bedroom : contains
Hotel *- - Facility : contains
Bedroom o- - Guest : contains
Hotel ... Booking
Bedroom ... Booking
@enduml

PlantUML version 1.2018.14(Fri Dec 21 16:33:16 UTC 2018)
(GPL source distribution)
Java Runtime: OpenJDK Runtime Environment
JVM: OpenJDK 64-Bit Server VM
Java Version: 1.8.0_181-8u181-b13-2~deb9u1-b13
Operating System: Linux
OS Version: 4.9.125-linuxkit
Default Encoding: UTF-8
Language: en
Country: null
--></g></svg>