<?xml version="1.0" encoding="UTF-8" standalone="no"?>
<svg xmlns="http://www.w3.org/2000/svg" xmlns:xlink="http://www.w3.org/1999/xlink" contentScriptType="application/ecmascript" contentStyleType="text/css" height="669px" preserveAspectRatio="none" style="width:545px;height:669px;" version="1.1" viewBox="0 0 545 669" width="545px" zoomAndPan="magnify"><defs><filter height="300%" id="f2xgkncemf2b2" width="300%" x="-1" y="-1"><feGaussianBlur result="blurOut" stdDeviation="2.0"/><feColorMatrix in="blurOut" result="blurOut2" type="matrix" values="0 0 0 0 0 0 0 0 0 0 0 0 0 0 0 0 0 0 .4 0"/><feOffset dx="4.0" dy="4.0" in="blurOut2" result="blurOut3"/><feBlend in="SourceGraphic" in2="blurOut3" mode="normal"/></filter></defs><g><!--class Guest--><rect fill="#FEFECE" filter="url(#f2xgkncemf2b2)" height="60.8047" id="Guest" style="stroke: #A80036; stroke-width: 1.5;" width="82" x="106" y="450"/><ellipse cx="126.85" cy="466" fill="#ADD1B2" rx="11" ry="11" style="stroke: #A80036; stroke-width: 1.0;"/><path d="M129.8188,471.6406 Q129.2406,471.9375 128.6,472.0859 Q127.9594,472.2344 127.2563,472.2344 Q124.7563,472.2344 123.4359,470.5859 Q122.1156,468.9375 122.1156,465.8125 Q122.1156,462.6875 123.4359,461.0313 Q124.7563,459.375 127.2563,459.375 Q127.9594,459.375 128.6078,459.5313 Q129.2563,459.6875 129.8188,459.9844 L129.8188,462.7031 Q129.1938,462.125 128.6,461.8516 Q128.0063,461.5781 127.3813,461.5781 Q126.0375,461.5781 125.35,462.6484 Q124.6625,463.7188 124.6625,465.8125 Q124.6625,467.9063 125.35,468.9766 Q126.0375,470.0469 127.3813,470.0469 Q128.0063,470.0469 128.6,469.7734 Q129.1938,469.5 129.8188,468.9219 L129.8188,471.6406 Z "/><text fill="#000000" font-family="sans-serif" font-size="12" lengthAdjust="spacingAndGlyphs" textLength="37" x="142.15" y="470.1543">Guest</text><line style="stroke: #A80036; stroke-width: 1.5;" x1="107" x2="187" y1="482" y2="482"/><text fill="#000000" font-family="sans-serif" font-size="11" lengthAdjust="spacingAndGlyphs" textLength="70" x="112" y="496.2104">String name</text><line style="stroke: #A80036; stroke-width: 1.5;" x1="107" x2="187" y1="502.8047" y2="502.8047"/><!--class Bedroom--><rect fill="#FEFECE" filter="url(#f2xgkncemf2b2)" height="150.4375" id="Bedroom" style="stroke: #A80036; stroke-width: 1.5;" width="282" x="6" y="223"/><ellipse cx="114.75" cy="239" fill="#ADD1B2" rx="11" ry="11" style="stroke: #A80036; stroke-width: 1.0;"/><path d="M117.7188,244.6406 Q117.1406,244.9375 116.5,245.0859 Q115.8594,245.2344 115.1563,245.2344 Q112.6563,245.2344 111.3359,243.5859 Q110.0156,241.9375 110.0156,238.8125 Q110.0156,235.6875 111.3359,234.0313 Q112.6563,232.375 115.1563,232.375 Q115.8594,232.375 116.5078,232.5313 Q117.1563,232.6875 117.7188,232.9844 L117.7188,235.7031 Q117.0938,235.125 116.5,234.8516 Q115.9063,234.5781 115.2813,234.5781 Q113.9375,234.5781 113.25,235.6484 Q112.5625,236.7188 112.5625,238.8125 Q112.5625,240.9063 113.25,241.9766 Q113.9375,243.0469 115.2813,243.0469 Q115.9063,243.0469 116.5,242.7734 Q117.0938,242.5 117.7188,241.9219 L117.7188,244.6406 Z "/><text fill="#000000" font-family="sans-serif" font-size="12" lengthAdjust="spacingAndGlyphs" textLength="56" x="135.25" y="243.1543">Bedroom</text><line style="stroke: #A80036; stroke-width: 1.5;" x1="7" x2="287" y1="255" y2="255"/><text fill="#000000" font-family="sans-serif" font-size="11" lengthAdjust="spacingAndGlyphs" textLength="88" x="12" y="269.2104">Integer number</text><text fill="#000000" font-family="sans-serif" font-size="11" lengthAdjust="spacingAndGlyphs" textLength="90" x="12" y="282.0151">Integer capacity</text><text fill="#000000" font-family="sans-serif" font-size="11" lengthAdjust="spacingAndGlyphs" textLength="93" x="12" y="294.8198">Float nightlyRate</text><text fill="#000000" font-family="sans-serif" font-size="11" lengthAdjust="spacingAndGlyphs" textLength="145" x="12" y="307.6245">ArrayList&lt;Guest&gt; guests</text><text fill="#000000" font-family="sans-serif" font-size="11" lengthAdjust="spacingAndGlyphs" textLength="62" x="12" y="320.4292">String type</text><line style="stroke: #A80036; stroke-width: 1.5;" x1="7" x2="287" y1="327.0234" y2="327.0234"/><text fill="#000000" font-family="sans-serif" font-size="11" lengthAdjust="spacingAndGlyphs" textLength="127" x="12" y="341.2339">isOccupied() : boolean</text><text fill="#000000" font-family="sans-serif" font-size="11" lengthAdjust="spacingAndGlyphs" textLength="270" x="12" y="354.0386">addGuestsToRoom(ArrayList&lt;Guest&gt;) : integer</text><text fill="#000000" font-family="sans-serif" font-size="11" lengthAdjust="spacingAndGlyphs" textLength="267" x="12" y="366.8433">removeGuestsFromRoom() : ArrayList&lt;Guest&gt;</text><!--class Facility--><rect fill="#FEFECE" filter="url(#f2xgkncemf2b2)" height="73.6094" id="Facility" style="stroke: #A80036; stroke-width: 1.5;" width="102" x="323" y="261"/><ellipse cx="350.6" cy="277" fill="#ADD1B2" rx="11" ry="11" style="stroke: #A80036; stroke-width: 1.0;"/><path d="M353.5688,282.6406 Q352.9906,282.9375 352.35,283.0859 Q351.7094,283.2344 351.0063,283.2344 Q348.5063,283.2344 347.1859,281.5859 Q345.8656,279.9375 345.8656,276.8125 Q345.8656,273.6875 347.1859,272.0313 Q348.5063,270.375 351.0063,270.375 Q351.7094,270.375 352.3578,270.5313 Q353.0063,270.6875 353.5688,270.9844 L353.5688,273.7031 Q352.9438,273.125 352.35,272.8516 Q351.7563,272.5781 351.1313,272.5781 Q349.7875,272.5781 349.1,273.6484 Q348.4125,274.7188 348.4125,276.8125 Q348.4125,278.9063 349.1,279.9766 Q349.7875,281.0469 351.1313,281.0469 Q351.7563,281.0469 352.35,280.7734 Q352.9438,280.5 353.5688,279.9219 L353.5688,282.6406 Z "/><text fill="#000000" font-family="sans-serif" font-size="12" lengthAdjust="spacingAndGlyphs" textLength="42" x="367.4" y="281.1543">Facility</text><line style="stroke: #A80036; stroke-width: 1.5;" x1="324" x2="424" y1="293" y2="293"/><text fill="#000000" font-family="sans-serif" font-size="11" lengthAdjust="spacingAndGlyphs" textLength="70" x="329" y="307.2104">String name</text><text fill="#000000" font-family="sans-serif" font-size="11" lengthAdjust="spacingAndGlyphs" textLength="90" x="329" y="320.0151">Integer capacity</text><line style="stroke: #A80036; stroke-width: 1.5;" x1="324" x2="424" y1="326.6094" y2="326.6094"/><!--class Hotel--><rect fill="#FEFECE" filter="url(#f2xgkncemf2b2)" height="137.6328" id="Hotel" style="stroke: #A80036; stroke-width: 1.5;" width="321" x="213.5" y="8"/><ellipse cx="353.25" cy="24" fill="#ADD1B2" rx="11" ry="11" style="stroke: #A80036; stroke-width: 1.0;"/><path d="M356.2188,29.6406 Q355.6406,29.9375 355,30.0859 Q354.3594,30.2344 353.6563,30.2344 Q351.1563,30.2344 349.8359,28.5859 Q348.5156,26.9375 348.5156,23.8125 Q348.5156,20.6875 349.8359,19.0313 Q351.1563,17.375 353.6563,17.375 Q354.3594,17.375 355.0078,17.5313 Q355.6563,17.6875 356.2188,17.9844 L356.2188,20.7031 Q355.5938,20.125 355,19.8516 Q354.4063,19.5781 353.7813,19.5781 Q352.4375,19.5781 351.75,20.6484 Q351.0625,21.7188 351.0625,23.8125 Q351.0625,25.9063 351.75,26.9766 Q352.4375,28.0469 353.7813,28.0469 Q354.4063,28.0469 355,27.7734 Q355.5938,27.5 356.2188,26.9219 L356.2188,29.6406 Z "/><text fill="#000000" font-family="sans-serif" font-size="12" lengthAdjust="spacingAndGlyphs" textLength="33" x="373.75" y="28.1543">Hotel</text><line style="stroke: #A80036; stroke-width: 1.5;" x1="214.5" x2="533.5" y1="40" y2="40"/><text fill="#000000" font-family="sans-serif" font-size="11" lengthAdjust="spacingAndGlyphs" textLength="70" x="219.5" y="54.2104">String name</text><text fill="#000000" font-family="sans-serif" font-size="11" lengthAdjust="spacingAndGlyphs" textLength="154" x="219.5" y="67.0151">Arraylist&lt;Facility&gt; facilities</text><text fill="#000000" font-family="sans-serif" font-size="11" lengthAdjust="spacingAndGlyphs" textLength="184" x="219.5" y="79.8198">ArrayList&lt;BedRoom&gt; bedrooms</text><text fill="#000000" font-family="sans-serif" font-size="11" lengthAdjust="spacingAndGlyphs" textLength="161" x="219.5" y="92.6245">ArrayList&lt;Booking&gt; booking</text><line style="stroke: #A80036; stroke-width: 1.5;" x1="214.5" x2="533.5" y1="99.2188" y2="99.2188"/><text fill="#000000" font-family="sans-serif" font-size="11" lengthAdjust="spacingAndGlyphs" textLength="309" x="219.5" y="113.4292">checkInGuests(bedroom, ArrayList&lt;Guest&gt;) : Booking</text><text fill="#000000" font-family="sans-serif" font-size="11" lengthAdjust="spacingAndGlyphs" textLength="93" x="219.5" y="126.2339">addRoom(Room)</text><text fill="#000000" font-family="sans-serif" font-size="11" lengthAdjust="spacingAndGlyphs" textLength="215" x="219.5" y="139.0386">getVacantRooms() : ArrayList&lt;Room&gt;</text><!--class Booking--><rect fill="#FEFECE" filter="url(#f2xgkncemf2b2)" height="86.4141" id="Booking" style="stroke: #A80036; stroke-width: 1.5;" width="157" x="322.5" y="572"/><ellipse cx="371.75" cy="588" fill="#ADD1B2" rx="11" ry="11" style="stroke: #A80036; stroke-width: 1.0;"/><path d="M374.7188,593.6406 Q374.1406,593.9375 373.5,594.0859 Q372.8594,594.2344 372.1563,594.2344 Q369.6563,594.2344 368.3359,592.5859 Q367.0156,590.9375 367.0156,587.8125 Q367.0156,584.6875 368.3359,583.0313 Q369.6563,581.375 372.1563,581.375 Q372.8594,581.375 373.5078,581.5313 Q374.1563,581.6875 374.7188,581.9844 L374.7188,584.7031 Q374.0938,584.125 373.5,583.8516 Q372.9063,583.5781 372.2813,583.5781 Q370.9375,583.5781 370.25,584.6484 Q369.5625,585.7188 369.5625,587.8125 Q369.5625,589.9063 370.25,590.9766 Q370.9375,592.0469 372.2813,592.0469 Q372.9063,592.0469 373.5,591.7734 Q374.0938,591.5 374.7188,590.9219 L374.7188,593.6406 Z "/><text fill="#000000" font-family="sans-serif" font-size="12" lengthAdjust="spacingAndGlyphs" textLength="50" x="392.25" y="592.1543">Booking</text><line style="stroke: #A80036; stroke-width: 1.5;" x1="323.5" x2="478.5" y1="604" y2="604"/><text fill="#000000" font-family="sans-serif" font-size="11" lengthAdjust="spacingAndGlyphs" textLength="86" x="328.5" y="618.2104">Bedroom room</text><text fill="#000000" font-family="sans-serif" font-size="11" lengthAdjust="spacingAndGlyphs" textLength="124" x="328.5" y="631.0151">Integer numberNights</text><text fill="#000000" font-family="sans-serif" font-size="11" lengthAdjust="spacingAndGlyphs" textLength="145" x="328.5" y="643.8198">ArrayList&lt;Guest&gt; guests</text><line style="stroke: #A80036; stroke-width: 1.5;" x1="323.5" x2="478.5" y1="650.4141" y2="650.4141"/><!--link Hotel to Bedroom--><path d="M293.808,155.366 C271.072,177.3 246.38,201.122 223.847,222.861 " fill="none" id="Hotel-Bedroom" style="stroke: #A80036; stroke-width: 1.0;"/><polygon fill="#A80036" points="303.42,146.092,296.3247,147.3791,294.7838,154.4236,301.8791,153.1365,303.42,146.092" style="stroke: #A80036; stroke-width: 1.0;"/><text fill="#000000" font-family="sans-serif" font-size="13" lengthAdjust="spacingAndGlyphs" textLength="54" x="269" y="189.0669">contains</text><!--link Hotel to Facility--><path d="M374,159.246 C374,194.177 374,233.225 374,260.802 " fill="none" id="Hotel-Facility" style="stroke: #A80036; stroke-width: 1.0;"/><polygon fill="#A80036" points="374,146.092,370,152.092,374,158.092,378,152.092,374,146.092" style="stroke: #A80036; stroke-width: 1.0;"/><text fill="#000000" font-family="sans-serif" font-size="13" lengthAdjust="spacingAndGlyphs" textLength="54" x="375" y="189.0669">contains</text><!--link Bedroom to Guest--><path d="M147,386.202 C147,409.054 147,432.166 147,449.67 " fill="none" id="Bedroom-Guest" style="stroke: #A80036; stroke-width: 1.0;"/><polygon fill="#FFFFFF" points="147,373.198,143,379.198,147,385.198,151,379.198,147,373.198" style="stroke: #A80036; stroke-width: 1.0;"/><text fill="#000000" font-family="sans-serif" font-size="13" lengthAdjust="spacingAndGlyphs" textLength="54" x="148" y="416.0669">contains</text><!--link Hotel to Booking--><path d="M424.242,146.275 C429.616,155.901 434.42,165.95 438,176 C445.05,195.788 441.887,202.023 443,223 C446.531,289.573 448.744,306.581 443,373 C436.925,443.239 421.069,523.721 410.671,571.6277 " fill="none" id="Hotel-Booking" style="stroke: #A80036; stroke-width: 1.0; stroke-dasharray: 7.0,7.0;"/><!--link Bedroom to Booking--><path d="M206.873,373.252 C256.74,435.094 325.983,520.967 366.878,571.6838 " fill="none" id="Bedroom-Booking" style="stroke: #A80036; stroke-width: 1.0; stroke-dasharray: 7.0,7.0;"/><!--
@startuml
class Guest {
  String name
}

class Bedroom {
  Integer number
  Integer capacity
  Float nightlyRate
  ArrayList<Guest> guests
  String type
  isOccupied() : boolean
  addGuestsToRoom(ArrayList<Guest>) : integer
  removeGuestsFromRoom() : ArrayList<Guest>
}

class Facility {
  String name
  Integer capacity
}

Class Hotel {
  String name
  Arraylist<Facility> facilities
  ArrayList<BedRoom> bedrooms
  ArrayList<Booking> booking
  checkInGuests(bedroom, ArrayList<Guest>) : Booking
  addRoom(Room)
  getVacantRooms() : ArrayList<Room>
}

Class Booking {
  Bedroom room
  Integer numberNights
  ArrayList<Guest> guests
}

Hotel *- - Bedroom : contains
Hotel *- - Facility : contains
Bedroom o- - Guest : contains
Hotel ... Booking
Bedroom ... Booking
@enduml

PlantUML version 1.2018.14(Fri Dec 21 16:33:16 UTC 2018)
(GPL source distribution)
Java Runtime: OpenJDK Runtime Environment
JVM: OpenJDK 64-Bit Server VM
Java Version: 1.8.0_181-8u181-b13-2~deb9u1-b13
Operating System: Linux
OS Version: 4.9.125-linuxkit
Default Encoding: UTF-8
Language: en
Country: null
--></g></svg>